<?xml version="1.0" encoding="utf-8"?>
<!-- Generator: Adobe Illustrator 24.0.0, SVG Export Plug-In . SVG Version: 6.00 Build 0)  -->
<svg version="1.1" id="Layer_1" xmlns="http://www.w3.org/2000/svg" xmlns:xlink="http://www.w3.org/1999/xlink" x="0px" y="0px"
	 viewBox="0 0 639.5 634.8" style="enable-background:new 0 0 639.5 634.8;" xml:space="preserve">
<style type="text/css">
	.st0{fill:#6699CC;}
</style>
<path class="st0" d="M36.5,87.5l37.9,66.4c1.3,2.2,3.4,3.9,5.9,4.5l35.4,8.8l121.4,121.4l13.4-13.4L127.3,152
	c-1.2-1.2-2.7-2.1-4.4-2.5l-34-8.5L56.6,84.4l27.7-27.7L140.9,89l8.5,34c0.4,1.7,1.3,3.2,2.5,4.4l123.3,123.3l13.4-13.4L167.3,115.9
	l-8.9-35.4c-0.6-2.5-2.3-4.7-4.5-5.9L87.5,36.7c-3.7-2.1-8.4-1.5-11.4,1.5L38.2,76.1C35.1,79.1,34.5,83.8,36.5,87.5L36.5,87.5z"/>
<path class="st0" d="M431,222.3L222.3,431l-13.4-13.4l208.7-208.7L431,222.3z"/>
<path class="st0" d="M185.7,438.4c-1.7-2.9-4.8-4.6-8.1-4.6h-56.9c-3.3,0-6.4,1.7-8.1,4.6l-28.5,47.4c-1.8,3-1.8,6.8,0,9.8
	l28.5,47.4c1.7,2.9,4.8,4.6,8.1,4.6h56.9c3.3,0,6.4-1.7,8.1-4.6l28.5-47.4c1.8-3,1.8-6.8,0-9.8L185.7,438.4z M172.2,528.7H126
	l-22.8-37.9l22.8-37.9h46.2l22.8,37.9L172.2,528.7z"/>
<path class="st0" d="M490.6,263c62.7,0.2,113.6-50.4,113.8-113.1c0-9.5-1.1-19-3.5-28.3c-1.3-5.1-6.4-8.2-11.5-6.9
	c-1.7,0.4-3.2,1.3-4.4,2.5l-59.1,59L479,160.6l-15.6-46.8l59.1-59.1c3.7-3.7,3.7-9.7,0-13.4c-1.2-1.2-2.8-2.1-4.4-2.5
	C457.4,23.5,395.7,60.2,380.3,121c-2.3,9.2-3.5,18.7-3.5,28.2c0,7.5,0.8,14.9,2.3,22.2L171.4,379.2c-7.3-1.5-14.8-2.3-22.2-2.3
	c-62.9,0-113.8,51-113.8,113.8c0,62.9,51,113.8,113.8,113.8c62.9,0,113.8-51,113.8-113.8c0-7.5-0.8-14.9-2.3-22.2l49.7-49.7
	l21.8,21.8c3.7,3.7,9.7,3.7,13.4,0l4.7-4.7c4.2-4.1,10.9-4.1,15,0c4.2,4.1,4.2,10.9,0,15l0,0l-4.7,4.7c-3.7,3.7-3.7,9.7,0,13.4
	l113.2,113.2c29.8,30,78.2,30.3,108.3,0.5c30-29.8,30.3-78.2,0.5-108.3c-0.2-0.2-0.3-0.3-0.5-0.5L468.9,360.7
	c-3.7-3.7-9.7-3.7-13.4,0l-4.7,4.7c-4.2,4.1-10.9,4.1-15.1,0s-4.2-10.9,0-15l0,0l4.7-4.7c3.7-3.7,3.7-9.7,0-13.4l-21.8-21.8
	l49.7-49.7C475.7,262.2,483.2,263,490.6,263L490.6,263z M527.9,585.6c-6.9,0-13.7-1.3-20.2-3.7l74.1-74.1
	c11.2,29.7-3.9,62.9-33.6,74.1C541.7,584.3,534.9,585.6,527.9,585.6L527.9,585.6z M420.4,339c-10.5,12.5-8.9,31.2,3.7,41.7
	c11,9.2,27.1,9.2,38.1,0l106.5,106.6c1.2,1.2,2.2,2.4,3.3,3.6L490.8,572c-1.2-1-2.5-2.1-3.6-3.3L380.6,462.2
	c10.5-12.5,8.9-31.2-3.7-41.7c-11-9.2-27.1-9.2-38.1,0l-15.2-15.2l81.5-81.4L420.4,339z M458.8,243.6L243.6,458.8
	c-2.4,2.4-3.3,5.8-2.5,9c13,51.1-17.9,103.1-69,116.1C121,596.9,69,566,56,514.9s17.9-103.1,69-116.1c15.5-3.9,31.7-3.9,47.1,0
	c3.2,0.8,6.7-0.2,9-2.5l215.2-215.2c2.4-2.4,3.3-5.8,2.5-9c-12.9-50.5,17.5-101.9,68.1-114.9c9.5-2.4,19.4-3.4,29.2-2.8l-50,50.1
	c-2.5,2.5-3.4,6.3-2.3,9.7l19,56.9c0.9,2.8,3.2,5.1,6,6l56.9,19c3.4,1.1,7.2,0.2,9.7-2.3l50-50c0.1,1.8,0.2,3.6,0.2,5.4
	c0.3,52.1-41.8,94.6-93.9,94.9c-8.1,0-16.1-0.9-23.9-2.9C464.5,240.3,461.1,241.2,458.8,243.6L458.8,243.6L458.8,243.6z"/>
<path class="st0" d="M525.8,512.5l-13.4,13.4L417.5,431l13.4-13.4L525.8,512.5z"/>
</svg>
