<?xml version="1.0" encoding="utf-8"?>
<!-- Generator: Adobe Illustrator 24.0.0, SVG Export Plug-In . SVG Version: 6.00 Build 0)  -->
<svg version="1.1" id="Layer_1" xmlns="http://www.w3.org/2000/svg" xmlns:xlink="http://www.w3.org/1999/xlink" x="0px" y="0px"
	 viewBox="0 0 440.1 415.8" style="enable-background:new 0 0 440.1 415.8;" xml:space="preserve">
<style type="text/css">
	.st0{fill:#6699CC;}
</style>
<path class="st0" d="M83.1,338.4c-23.2,0-42,18.8-42,42c0,3.3,2.7,6,6,6h72c3.3,0,6-2.7,6-6C125.1,357.2,106.3,338.4,83.1,338.4
	L83.1,338.4z M53.7,374.4c2.4-11.7,11.7-20.9,23.4-23.3v11.3h12V351c11.7,2.4,21,11.6,23.4,23.3H53.7V374.4z"/>
<path class="st0" d="M395.1,284.4h-10.5c-0.3-0.8-0.7-1.7-1-2.5l7.4-7.4c2.3-2.3,2.3-6.1,0-8.5l-25.5-25.5c-1.2-1.2-2.9-1.8-4.5-1.7
	c9.5-5,16.1-14.9,16.1-26.4v-156c0-16.5-13.5-30-30-30h-276c-16.5,0-30,13.5-30,30v156c0,16.5,13.5,30,30,30h78.3l-22.7,42h-10.6
	c-11.6,0-21,9.4-21,21s9.4,21,21,21h129c0,3.3,2.7,6,6,6h10.5c0.3,0.8,0.7,1.7,1,2.5l-7.4,7.4c-2.3,2.3-2.3,6.1,0,8.5l25.5,25.5
	c2.3,2.3,6.1,2.3,8.5,0l7.4-7.4c0.8,0.4,1.7,0.7,2.5,1v10.5c0,3.3,2.7,6,6,6h36c3.3,0,6-2.7,6-6v-10.5c0.8-0.3,1.7-0.7,2.5-1
	l7.4,7.4c2.3,2.3,6.1,2.3,8.5,0l25.5-25.5c2.3-2.3,2.3-6.1,0-8.5l-7.4-7.4c0.4-0.8,0.7-1.7,1-2.5h10.5c3.3,0,6-2.7,6-6v-36
	C401.1,287.1,398.4,284.4,395.1,284.4L395.1,284.4z M53.1,56.4c0-9.9,8.1-18,18-18h276c9.9,0,18,8.1,18,18v126h-312
	C53.1,182.4,53.1,56.4,53.1,56.4z M71.1,230.4c-9.9,0-18-8.1-18-18v-18h312v18c0,9.9-8.1,18-18,18H71.1z M357,240.6l-7.4,7.4
	c-0.8-0.4-1.7-0.7-2.5-1v-4.5C350.6,242.4,353.9,241.7,357,240.6L357,240.6z M299.1,242.4v4.5c-0.8,0.3-1.7,0.7-2.5,1l-5.6-5.6h8.1
	V242.4z M278.8,242.4l-5.2,5.2l-3.5-5.2H278.8z M245.1,314.4h-129c-5,0-9-4-9-9s4-9,9-9h129V314.4z M140.4,284.4l22.7-42h92.5
	l9.4,13.8l-9.8,9.8c-2.3,2.3-2.3,6.1,0,8.5l7.4,7.4c-0.4,0.8-0.7,1.7-1,2.5L140.4,284.4L140.4,284.4z M389.1,320.4h-8.8
	c-2.6,0-4.9,1.7-5.7,4.2c-0.9,2.9-2.1,5.8-3.7,8.8c-1.2,2.3-0.8,5.2,1.1,7l6.2,6.2l-17,17l-6.2-6.2c-1.9-1.9-4.7-2.3-7-1.1
	c-2.9,1.5-5.9,2.8-8.8,3.7c-2.5,0.8-4.2,3.1-4.2,5.7v8.8h-24v-8.8c0-2.6-1.7-4.9-4.2-5.7c-2.9-0.9-5.8-2.1-8.8-3.7
	c-2.3-1.2-5.2-0.8-7,1.1l-6.2,6.2l-17-17l6.2-6.2c1.9-1.9,2.3-4.7,1.1-7c-1.5-2.9-2.8-5.9-3.7-8.8c-0.8-2.5-3.1-4.2-5.7-4.2h-8.8
	v-24h8.8c2.6,0,4.9-1.7,5.7-4.2c0.9-2.9,2.1-5.8,3.7-8.8c1.2-2.3,0.8-5.2-1.1-7l-6.2-6.2l17-17l6.2,6.2c1.9,1.9,4.7,2.3,7,1.1
	c2.9-1.5,5.9-2.8,8.8-3.7c2.5-0.8,4.2-3.1,4.2-5.7v-8.8h24v8.8c0,2.6,1.7,4.9,4.2,5.7c2.9,0.9,5.8,2.1,8.8,3.7
	c2.3,1.2,5.2,0.8,7-1.1l6.2-6.2l17,17l-6.2,6.2c-1.9,1.9-2.3,4.7-1.1,7c1.5,2.9,2.7,5.9,3.7,8.8c0.8,2.5,3.1,4.2,5.7,4.2h8.8V320.4z
	"/>
<path class="st0" d="M323.1,272.4c-19.9,0-36,16.1-36,36s16.1,36,36,36s36-16.1,36-36S343,272.4,323.1,272.4L323.1,272.4z
	 M323.1,332.4c-13.2,0-24-10.8-24-24s10.8-24,24-24s24,10.8,24,24S336.3,332.4,323.1,332.4L323.1,332.4z"/>
<path class="st0" d="M159.3,72.6l-8.5-8.5l-42,42c-2.3,2.3-2.3,6.1,0,8.5l42,42l8.5-8.5l-37.8-37.8L159.3,72.6z"/>
<path class="st0" d="M291.3,106.1l-42-42l-8.5,8.5l37.8,37.8l-37.8,37.8l8.5,8.5l42-42C293.7,112.3,293.7,108.5,291.3,106.1
	L291.3,106.1z"/>
<path class="st0" d="M167.7,155.7l54-108l10.7,5.4l-54,108L167.7,155.7z"/>
<rect x="275.1" y="146.4" class="st0" width="12" height="12"/>
<rect x="299.1" y="146.4" class="st0" width="12" height="12"/>
<rect x="323.1" y="146.4" class="st0" width="12" height="12"/>
</svg>
