<?xml version="1.0" encoding="utf-8"?>
<!-- Generator: Adobe Illustrator 24.0.0, SVG Export Plug-In . SVG Version: 6.00 Build 0)  -->
<svg version="1.1" id="Layer_1" xmlns="http://www.w3.org/2000/svg" xmlns:xlink="http://www.w3.org/1999/xlink" x="0px" y="0px"
	 viewBox="0 0 548.3 552.7" style="enable-background:new 0 0 548.3 552.7;" xml:space="preserve">
<style type="text/css">
	.st0{fill:#FFFFFF;}
	.st1{fill:none;}
</style>
<path class="st0" d="M430.7,105.7c-7.1,0-12.8,5.7-12.8,12.8c0,7.1,5.7,12.8,12.8,12.8c7.1,0,12.8-5.7,12.8-12.8
	C443.5,111.4,437.8,105.7,430.7,105.7L430.7,105.7z M430.7,105.7"/>
<path class="st0" d="M466.6,22.8c-3.3-3.3-8.7-3.3-12.1,0l-68.3,68.3c-1.6,1.6-2.5,3.8-2.5,6v59.7c0,4.7,3.8,8.5,8.5,8.5H452
	c2.3,0,4.4-0.9,6-2.5l68.3-68.3c3.3-3.3,3.3-8.7,0-12.1L466.6,22.8z M448.5,148.3h-47.7v-47.7l59.7-59.7l47.7,47.7L448.5,148.3z
	 M448.5,148.3"/>
<path class="st0" d="M25.4,310.5H51v1.1c0,15.4,10.6,28.7,25.6,32.1v77.7c0,4.7,3.8,8.5,8.5,8.5h51.2c4.7,0,8.5-3.8,8.5-8.5v-34.1
	h8.6c14.1,0,25.5-11.4,25.5-25.5v-18.1c10.9-2.6,19.8-10.5,23.5-21l143.7,63.9c4.3,1.9,9.4,0,11.3-4.3c0.5-1.1,0.7-2.3,0.7-3.5
	V173.9c0-4.7-3.8-8.5-8.5-8.5c-1.2,0-2.4,0.2-3.5,0.7L202.5,230c-4.7-13.1-17.1-21.9-31-21.9H84c-18.2,0-33,14.8-33,33v1.1H25.4
	c-4.7,0-8.5,3.8-8.5,8.5v51.2C16.8,306.6,20.7,310.5,25.4,310.5L25.4,310.5z M307,202.2l34.1-15.2v178.5L307,350.4V202.2z
	 M204.6,247.7l85.3-37.9v133.1l-85.3-38V247.7z M127.8,378.7v34.1H93.6v-68.3h34.1V378.7z M161.9,361.7c0,4.7-3.8,8.5-8.5,8.5h-8.6
	v-25.6h17.1V361.7z M68,301.9v-60.8c0-8.8,7.2-16,16-16h87.5c8.8,0,16,7.2,16,16v70.5c0,8.8-7.2,16-16,16H84c-8.8,0-16-7.2-16-16
	V301.9z M33.9,259.3H51v34.1H33.9V259.3z M33.9,259.3"/>
<path class="st0" d="M441.9,355.9c-3.3-3.3-8.7-3.3-12.1,0l-60.3,60.3c-3.3,3.3-3.3,8.7,0,12.1l84.5,84.5c3.3,3.3,8.7,3.3,12.1,0
	l60.3-60.3c3.3-3.3,3.3-8.7,0-12.1L441.9,355.9z M498,436.1l-48.2-3.7l-3.7-48.2L498,436.1z M460,494.7l-72.4-72.4l41.2-41.2
	l4.6,59.9c0.3,4.2,3.7,7.5,7.8,7.9l59.9,4.6L460,494.7z M460,494.7"/>
<path class="st0" d="M247.2,182.5c32.9,0.1,59.7-26.6,59.8-59.5c0-13-4.2-25.6-12-36l52.1-52.1l-12.1-12.1l-52.1,52.1
	c-26.4-19.8-63.8-14.4-83.6,11.9c-19.8,26.4-14.4,63.8,11.9,83.6C221.6,178.3,234.3,182.5,247.2,182.5L247.2,182.5z M247.2,80.1
	c23.6,0,42.7,19.1,42.7,42.7c0,23.6-19.1,42.7-42.7,42.7c-23.6,0-42.7-19.1-42.7-42.7C204.6,99.2,223.7,80.1,247.2,80.1L247.2,80.1z
	 M247.2,80.1"/>
<path class="st0" d="M383.8,319h42.7v8.5c0,4.7,3.8,8.5,8.5,8.5h68.3c4.7,0,8.5-3.8,8.5-8.5V285c0-14.5-9.2-27.4-22.9-32.2
	c15.4-10.9,18.9-32.2,8-47.6c-10.9-15.4-32.2-19-47.6-8c-15.4,10.9-19,32.2-8,47.6c2.2,3.1,4.9,5.8,8,8c-5.5,2-10.4,5.3-14.3,9.7
	c-3-3.4-6.6-6.2-10.7-8.2c11.5-8.3,14.1-24.3,5.8-35.7c-8.3-11.5-24.3-14.1-35.7-5.8c-11.5,8.3-14.1,24.3-5.8,35.7
	c1.6,2.2,3.6,4.2,5.8,5.8c-11.7,5.7-19.1,17.5-19.2,30.5v25.6C375.2,315.2,379.1,319,383.8,319L383.8,319z M469.1,208.1
	c9.4,0,17.1,7.6,17.1,17.1c0,9.4-7.6,17.1-17.1,17.1c-9.4,0-17.1-7.6-17.1-17.1C452,215.7,459.7,208.1,469.1,208.1L469.1,208.1z
	 M443.5,310.5V285c0-9.5,7.7-17.2,17.2-17.2h16.7c9.5,0,17.2,7.7,17.2,17.2v34h-51.2V310.5z M409.4,225.1c4.7,0,8.5,3.8,8.5,8.5
	c0,4.7-3.8,8.5-8.5,8.5c-4.7,0-8.5-3.8-8.5-8.5C400.8,229,404.7,225.1,409.4,225.1L409.4,225.1z M392.3,284.9
	c0-9.4,7.6-17.1,17.1-17.1s17.1,7.6,17.1,17.1v17.1h-34.1V284.9z M392.3,284.9"/>
<path class="st0" d="M255.8,370.2h-34.1c-2.3,0-4.4,0.9-6,2.5l-51.2,51.2c-3.3,3.3-3.3,8.7,0,12.1l93.9,93.9c3.3,3.3,8.7,3.3,12.1,0
	l68.3-68.3c3.3-3.3,3.3-8.7,0-12.1l-76.8-76.8C260.2,371.1,258,370.2,255.8,370.2L255.8,370.2z M264.3,511.7l-81.8-81.8l42.7-42.7
	h27.1l68.3,68.3L264.3,511.7z M264.3,511.7"/>
<rect x="16.8" y="20.3" class="st1" width="512" height="512"/>
<path class="st0" d="M215.6,441l34.1-34.1l12.1,12.1L227.7,453L215.6,441z M215.6,441"/>
<path class="st0" d="M241.2,466.6l34.1-34.1l12.1,12.1l-34.1,34.1L241.2,466.6z M241.2,466.6"/>
</svg>
