<?xml version="1.0" encoding="utf-8"?>
<!-- Generator: Adobe Illustrator 24.0.0, SVG Export Plug-In . SVG Version: 6.00 Build 0)  -->
<svg version="1.1" id="Layer_1" xmlns="http://www.w3.org/2000/svg" xmlns:xlink="http://www.w3.org/1999/xlink" x="0px" y="0px"
	 viewBox="0 0 545.9 191" style="enable-background:new 0 0 545.9 191;" xml:space="preserve">
<style type="text/css">
	.st0{fill:none;stroke:#000000;stroke-width:16;stroke-miterlimit:10;}
	.st1{fill:#69AFCD;}
	.st2{fill:none;stroke:#FFFFFF;stroke-width:14;stroke-miterlimit:10;}
	.st3{enable-background:new    ;}
	.st4{fill:#808285;}
</style>
<path class="st0" d="M52.1,127.2"/>
<circle class="st1" cx="89.2" cy="97.6" r="61.9"/>
<g>
	<path class="st2" d="M53.8,123.3L62.3,89c0.9-3.5,4.4-5.6,7.8-4.7l33.5,8.3"/>
</g>
<g>
	<path class="st2" d="M121.5,61.6l-15.2,60.9c-0.9,3.5-4.4,5.6-7.8,4.7l-33.7-8.4"/>
</g>
<g class="st3">
	<path class="st1" d="M188.9,92.7c-1.3-0.4-2.4-0.7-3.4-0.7c-1.4,0-2.6,0.4-3.5,1.1c-1,0.7-1.6,1.7-1.9,2.9v19.6h-7.9V85.3h6.1
		l0.9,4h0.2c0.7-1.5,1.6-2.6,2.8-3.5c1.2-0.8,2.5-1.2,4.1-1.2c1.1,0,2.2,0.2,3.6,0.7L188.9,92.7z"/>
	<path class="st1" d="M193,76.7c0-1.2,0.4-2.2,1.3-3c0.9-0.8,2.1-1.2,3.6-1.2c1.5,0,2.8,0.4,3.7,1.2c0.9,0.8,1.4,1.8,1.4,3
		c0,1.2-0.5,2.2-1.4,2.9c-1,0.8-2.2,1.2-3.7,1.2c-1.5,0-2.7-0.4-3.6-1.2C193.4,78.9,193,77.9,193,76.7z M194.2,85.3h7.9v30.3h-7.9
		V85.3z"/>
	<path class="st1" d="M231.2,113.7c-1.2,0.9-2.7,1.6-4.4,2c-1.7,0.5-3.5,0.7-5.3,0.7c-2.4,0-4.5-0.4-6.2-1.2c-1.7-0.8-3-1.8-4.1-3.2
		c-1.1-1.4-1.8-3.1-2.3-5.1c-0.5-2-0.7-4.2-0.7-6.6c0-5.1,1.2-9.1,3.5-11.9c2.3-2.8,5.7-4.2,10.1-4.2c2.2,0,4,0.2,5.4,0.5
		c1.4,0.4,2.6,0.8,3.7,1.4l-1.9,6.4c-0.9-0.4-1.9-0.8-2.8-1c-0.9-0.2-2-0.4-3.1-0.4c-2.2,0-3.8,0.7-5,2.2c-1.1,1.4-1.7,3.7-1.7,6.9
		c0,1.3,0.1,2.5,0.4,3.6c0.3,1.1,0.7,2,1.3,2.9c0.6,0.8,1.3,1.4,2.2,1.9c0.9,0.5,2,0.7,3.2,0.7c1.3,0,2.5-0.2,3.4-0.5
		c0.9-0.3,1.8-0.8,2.5-1.2L231.2,113.7z"/>
	<path class="st1" d="M256.5,113.7c-1.2,0.9-2.7,1.6-4.4,2c-1.7,0.5-3.5,0.7-5.3,0.7c-2.4,0-4.5-0.4-6.2-1.2c-1.7-0.8-3-1.8-4.1-3.2
		c-1.1-1.4-1.8-3.1-2.3-5.1c-0.5-2-0.7-4.2-0.7-6.6c0-5.1,1.2-9.1,3.5-11.9c2.3-2.8,5.7-4.2,10.1-4.2c2.2,0,4,0.2,5.4,0.5
		c1.4,0.4,2.6,0.8,3.7,1.4l-1.9,6.4c-0.9-0.4-1.9-0.8-2.8-1c-0.9-0.2-2-0.4-3.1-0.4c-2.2,0-3.8,0.7-5,2.2c-1.1,1.4-1.7,3.7-1.7,6.9
		c0,1.3,0.1,2.5,0.4,3.6c0.3,1.1,0.7,2,1.3,2.9c0.6,0.8,1.3,1.4,2.2,1.9c0.9,0.5,2,0.7,3.2,0.7c1.3,0,2.5-0.2,3.4-0.5
		c0.9-0.3,1.8-0.8,2.5-1.2L256.5,113.7z"/>
	<path class="st1" d="M284.5,113c-1.2,1-2.9,1.8-4.9,2.5c-2.1,0.7-4.3,1-6.6,1c-4.9,0-8.5-1.4-10.7-4.3c-2.3-2.9-3.4-6.8-3.4-11.7
		c0-5.3,1.3-9.3,3.8-12c2.5-2.7,6.1-4,10.7-4c1.5,0,3,0.2,4.5,0.6c1.5,0.4,2.7,1.1,3.9,2c1.1,0.9,2,2.2,2.7,3.8c0.7,1.6,1,3.5,1,5.9
		c0,0.8-0.1,1.8-0.2,2.7c-0.1,1-0.3,2-0.5,3h-18.2c0.1,2.5,0.8,4.5,2,5.8c1.2,1.3,3.1,1.9,5.8,1.9c1.7,0,3.1-0.3,4.5-0.8
		c1.3-0.5,2.3-1,3-1.5L284.5,113z M273.2,90.7c-2.1,0-3.6,0.6-4.6,1.9c-1,1.2-1.6,2.9-1.8,4.9h11.3c0.2-2.2-0.2-3.9-1-5
		C276.3,91.3,275,90.7,273.2,90.7z"/>
	<path class="st1" d="M299.2,105.4c0,1.4,0.2,2.4,0.5,3.1c0.4,0.6,1,1,1.8,1c0.5,0,1,0,1.4-0.1c0.5-0.1,1-0.3,1.7-0.5l0.8,6.2
		c-0.6,0.3-1.6,0.6-3,1c-1.3,0.3-2.7,0.5-4.1,0.5c-2.3,0-4.1-0.5-5.3-1.6c-1.2-1.1-1.8-2.8-1.8-5.3V73.1h7.9V105.4z"/>
	<path class="st1" d="M317,105.4c0,1.4,0.2,2.4,0.5,3.1c0.4,0.6,0.9,1,1.8,1c0.5,0,1,0,1.4-0.1c0.5-0.1,1-0.3,1.7-0.5l0.8,6.2
		c-0.6,0.3-1.6,0.6-3,1c-1.3,0.3-2.7,0.5-4.1,0.5c-2.3,0-4.1-0.5-5.3-1.6c-1.2-1.1-1.8-2.8-1.8-5.3V73.1h7.9V105.4z"/>
	<path class="st1" d="M326.3,76.7c0-1.2,0.4-2.2,1.3-3c0.9-0.8,2.1-1.2,3.6-1.2s2.8,0.4,3.7,1.2c0.9,0.8,1.4,1.8,1.4,3
		c0,1.2-0.5,2.2-1.4,2.9c-1,0.8-2.2,1.2-3.7,1.2s-2.7-0.4-3.6-1.2C326.7,78.9,326.3,77.9,326.3,76.7z M327.5,85.3h7.9v30.3h-7.9
		V85.3z"/>
</g>
<g class="st3">
	<path class="st4" d="M386.2,104.9c0,1.7,0,3.4,0.1,5.1c0,1.7,0.2,3.6,0.5,5.6h-5.6l-1.1-3.9h-0.2c-0.8,1.4-2,2.6-3.5,3.4
		s-3.3,1.3-5.4,1.3c-3.8,0-6.8-1.3-8.9-3.8c-2.1-2.5-3.2-6.4-3.2-11.8c0-5.2,1.2-9.2,3.5-12.1c2.3-2.9,5.8-4.3,10.3-4.3
		c1.3,0,2.3,0.1,3.1,0.2c0.8,0.1,1.6,0.4,2.4,0.7V73.1h7.9V104.9z M372.8,109.8c1.5,0,2.8-0.4,3.6-1.1c0.9-0.7,1.5-1.8,1.9-3.2V92.5
		c-0.6-0.4-1.2-0.8-1.9-1s-1.6-0.3-2.7-0.3c-2.2,0-3.9,0.7-5,2.2s-1.7,4.1-1.7,7.7c0,2.6,0.5,4.7,1.4,6.2S370.8,109.8,372.8,109.8z"
		/>
	<path class="st4" d="M417.4,113c-1.2,1-2.9,1.8-4.9,2.5c-2.1,0.7-4.3,1-6.6,1c-4.9,0-8.5-1.4-10.7-4.3c-2.3-2.9-3.4-6.8-3.4-11.7
		c0-5.3,1.3-9.3,3.8-12c2.5-2.7,6.1-4,10.7-4c1.5,0,3,0.2,4.5,0.6c1.5,0.4,2.8,1.1,3.9,2c1.1,0.9,2,2.2,2.7,3.8c0.7,1.6,1,3.5,1,5.9
		c0,0.8-0.1,1.8-0.2,2.7s-0.3,2-0.5,3h-18.2c0.1,2.5,0.8,4.5,2,5.8c1.2,1.3,3.1,1.9,5.8,1.9c1.7,0,3.1-0.3,4.5-0.8
		c1.3-0.5,2.3-1,3-1.5L417.4,113z M406.1,90.7c-2.1,0-3.6,0.6-4.6,1.9c-1,1.2-1.6,2.9-1.8,4.9H411c0.2-2.2-0.2-3.9-1-5
		C409.2,91.3,407.9,90.7,406.1,90.7z"/>
	<path class="st4" d="M436.5,107.2c0-0.8-0.3-1.5-1-1.9c-0.7-0.5-1.5-0.9-2.5-1.3c-1-0.4-2.1-0.8-3.3-1.2c-1.2-0.4-2.3-1-3.3-1.8
		c-1-0.7-1.9-1.7-2.5-2.9s-1-2.6-1-4.5c0-3,0.9-5.3,2.7-6.9c1.8-1.6,4.3-2.4,7.7-2.4c2.3,0,4.4,0.2,6.2,0.7s3.3,1,4.4,1.6l-1.8,5.7
		c-0.9-0.4-2.1-0.7-3.5-1.2c-1.4-0.4-2.9-0.6-4.3-0.6c-2.3,0-3.5,0.9-3.5,2.7c0,0.7,0.3,1.3,1,1.8c0.7,0.4,1.5,0.9,2.5,1.2
		c1,0.4,2.1,0.8,3.3,1.2c1.2,0.4,2.3,1,3.3,1.7c1,0.7,1.9,1.6,2.5,2.8c0.7,1.1,1,2.6,1,4.4c0,3.1-1,5.5-2.9,7.2
		c-2,1.8-4.9,2.6-8.8,2.6c-2.1,0-4.2-0.3-6-0.8s-3.4-1.2-4.6-1.9l2.2-5.9c0.9,0.5,2.2,1,3.7,1.5c1.5,0.5,3.1,0.8,4.7,0.8
		c1.2,0,2.1-0.2,2.8-0.7C436.2,109,436.5,108.3,436.5,107.2z"/>
	<path class="st4" d="M449.1,76.7c0-1.2,0.4-2.2,1.3-3c0.9-0.8,2.1-1.2,3.6-1.2c1.5,0,2.8,0.4,3.7,1.2c1,0.8,1.4,1.8,1.4,3
		c0,1.2-0.5,2.2-1.4,2.9c-1,0.8-2.2,1.2-3.7,1.2c-1.5,0-2.7-0.4-3.6-1.2C449.6,78.9,449.1,77.9,449.1,76.7z M450.3,85.3h7.9v30.3
		h-7.9V85.3z"/>
	<path class="st4" d="M491.5,115.6c0,4.4-1.2,7.7-3.6,9.7c-2.4,2.1-5.7,3.1-10,3.1c-2.9,0-5.2-0.2-6.9-0.6c-1.7-0.4-2.9-0.8-3.8-1.3
		l1.6-6.2c0.9,0.4,2,0.7,3.2,1.1c1.2,0.4,2.8,0.5,4.6,0.5c2.8,0,4.6-0.6,5.6-1.8s1.5-2.9,1.5-5v-1.9h-0.2c-1.4,1.9-3.9,2.9-7.5,2.9
		c-3.9,0-6.8-1.2-8.8-3.6s-2.9-6.2-2.9-11.4c0-5.4,1.3-9.5,3.9-12.3c2.6-2.8,6.3-4.2,11.3-4.2c2.6,0,4.9,0.2,6.9,0.5
		c2,0.4,3.7,0.8,5,1.3V115.6z M478.2,109.8c1.5,0,2.7-0.3,3.5-1c0.8-0.7,1.5-1.7,1.9-3.1V92c-1.3-0.5-2.8-0.8-4.7-0.8
		c-2,0-3.6,0.8-4.7,2.3c-1.1,1.5-1.7,3.9-1.7,7.2c0,3,0.5,5.2,1.5,6.7C475,109,476.4,109.8,478.2,109.8z"/>
	<path class="st4" d="M517,115.6V98.4c0-2.5-0.4-4.2-1.1-5.3c-0.7-1.1-1.9-1.6-3.6-1.6c-1.5,0-2.8,0.4-3.8,1.3c-1,0.9-1.8,2-2.2,3.2
		v19.7h-7.9V85.3h6.2l0.9,4h0.2c0.9-1.3,2.2-2.4,3.7-3.4c1.5-1,3.5-1.5,5.9-1.5c1.5,0,2.8,0.2,4,0.6c1.2,0.4,2.2,1.1,3,2
		c0.8,0.9,1.4,2.2,1.8,3.8c0.4,1.6,0.6,3.6,0.6,5.9v18.9H517z"/>
</g>
</svg>
