<?xml version="1.0" encoding="utf-8"?>
<!-- Generator: Adobe Illustrator 24.0.1, SVG Export Plug-In . SVG Version: 6.00 Build 0)  -->
<svg version="1.1" id="WordPress" xmlns="http://www.w3.org/2000/svg" xmlns:xlink="http://www.w3.org/1999/xlink" x="0px" y="0px"
	 viewBox="0 0 1236 293" style="enable-background:new 0 0 1236 293;" xml:space="preserve">
<style type="text/css">
	.st0{fill:#32373C;}
</style>
<g id="Logotype">
	<g id="Wordmark">
		<path class="st0" d="M697.1,123.7h-47.2v5c14.8,0,17.1,3.2,17.1,21.9v33.7c0,18.7-2.4,22.1-17.1,22.1c-11.3-1.6-19-7.6-29.5-19.2
			l-12.1-13.2c16.3-2.9,25-13.2,25-24.8c0-14.5-12.4-25.6-35.6-25.6h-46.4v5c14.8,0,17.1,3.2,17.1,21.9v33.7
			c0,18.7-2.4,22.1-17.1,22.1v5h52.5v-5c-14.8,0-17.1-3.4-17.1-22.1v-9.5h4.5l29.3,36.6h76.7c37.7,0,54-20,54-44
			C751.2,143.5,734.8,123.7,697.1,123.7z M586.7,166.7v-35.1h10.8c11.9,0,17.1,8.2,17.1,17.7c0,9.2-5.3,17.4-17.1,17.4H586.7z
			 M697.9,203.3h-1.8c-9.5,0-10.8-2.4-10.8-14.5v-57.2c0,0,11.6,0,12.7,0c27.4,0,32.4,20,32.4,35.6
			C730.4,183.3,725.3,203.3,697.9,203.3z"/>
		<path class="st0" d="M404.5,176.4l18.2-53.8c5.3-15.6,2.9-20-14-20v-5.3h49.6v5.3c-16.6,0-20.6,4-27.2,23.2L401.1,216h-3.4
			l-26.9-82.5L343.3,216h-3.4l-29.3-90.2c-6.3-19.2-10.5-23.2-25.8-23.2v-5.3h58.5v5.3c-15.6,0-19.8,3.7-14.2,20l17.7,53.8
			l26.6-79.1h5L404.5,176.4z"/>
		<path class="st0" d="M494.1,214.9c-29,0-52.7-21.4-52.7-47.5c0-25.8,23.7-47.2,52.7-47.2c29,0,52.7,21.4,52.7,47.2
			C546.9,193.6,523.1,214.9,494.1,214.9z M494.1,128.5c-24.3,0-32.7,21.9-32.7,39c0,17.4,8.4,39,32.7,39c24.5,0,33-21.6,33-39
			C527.1,150.3,518.6,128.5,494.1,128.5z"/>
		<path class="st0" d="M816.3,206.2v5.3h-60.4v-5.3c17.7,0,20.8-4.5,20.8-30.8v-42.2c0-26.4-3.2-30.6-20.8-30.6v-5.3h54.6
			c27.2,0,42.2,14,42.2,32.7c0,18.2-15,32.4-42.2,32.4h-15v12.9C795.5,201.7,798.6,206.2,816.3,206.2z M810.5,106.8h-15v45.9h15
			c14.8,0,21.6-10.3,21.6-22.7C832.1,117.4,825.3,106.8,810.5,106.8z"/>
		<path class="st0" d="M1033.8,186.7l-1.3,4.7c-2.4,8.7-5.3,11.9-24,11.9h-3.7c-13.7,0-16.1-3.2-16.1-21.9v-12.1
			c20.6,0,22.1,1.8,22.1,15.6h5v-39.3h-5c0,13.7-1.6,15.6-22.1,15.6v-29.5h14.5c18.7,0,21.6,3.2,24,11.9l1.3,5h4.2l-1.8-24.8h-77.5
			v5c14.8,0,17.1,3.2,17.1,21.9v33.7c0,17.1-2,21.4-13.7,22.1c-11.1-1.7-18.7-7.7-29.1-19.2l-12.1-13.2c16.3-2.9,25-13.2,25-24.8
			c0-14.5-12.4-25.6-35.6-25.6h-46.4v5c14.8,0,17.1,3.2,17.1,21.9v33.7c0,18.7-2.4,22.1-17.1,22.1v5h52.5v-5
			c-14.8,0-17.1-3.4-17.1-22.1v-9.5h4.5l29.3,36.6h108.4l1.6-24.8H1033.8z M894.1,166.7v-35.1h10.8c11.9,0,17.1,8.2,17.1,17.7
			c0,9.2-5.3,17.4-17.1,17.4H894.1z"/>
		<path class="st0" d="M1087.3,214.9c-10.5,0-19.8-5.5-23.7-9c-1.3,1.3-3.7,5.3-4.2,9h-5v-36.4h5.3c2.1,17.4,14.2,27.7,29.8,27.7
			c8.4,0,15.3-4.7,15.3-12.7c0-6.9-6.1-12.1-16.9-17.1l-15-7.1c-10.5-5-18.5-13.7-18.5-25.3c0-12.7,11.9-23.5,28.2-23.5
			c8.7,0,16.1,3.2,20.6,6.9c1.3-1.1,2.6-4,3.4-7.1h5v31.1h-5.5c-1.8-12.4-8.7-22.7-22.7-22.7c-7.4,0-14.2,4.2-14.2,10.8
			c0,6.9,5.5,10.5,18.2,16.3l14.5,7.1c12.7,6.1,17.7,15.8,17.7,23.7C1119.5,203.3,1105,214.9,1087.3,214.9z"/>
		<path class="st0" d="M1167,214.9c-10.5,0-19.8-5.5-23.7-9c-1.3,1.3-3.7,5.3-4.2,9h-5v-36.4h5.3c2.1,17.4,14.2,27.7,29.8,27.7
			c8.4,0,15.3-4.7,15.3-12.7c0-6.9-6.1-12.1-16.9-17.1l-15-7.1c-10.5-5-18.5-13.7-18.5-25.3c0-12.7,11.9-23.5,28.2-23.5
			c8.7,0,16.1,3.2,20.6,6.9c1.3-1.1,2.6-4,3.4-7.1h5v31.1h-5.5c-1.8-12.4-8.7-22.7-22.7-22.7c-7.4,0-14.2,4.2-14.2,10.8
			c0,6.9,5.5,10.5,18.2,16.3l14.5,7.1c12.7,6.1,17.7,15.8,17.7,23.7C1199.2,203.3,1184.7,214.9,1167,214.9z"/>
	</g>
	<g id="W_Mark">
		<path class="st0" d="M154.3,42.8c15.1,0,29.7,2.9,43.4,8.8c6.6,2.8,13,6.3,18.9,10.3c5.9,4,11.5,8.6,16.5,13.6
			c5,5,9.6,10.6,13.6,16.5c4,6,7.5,12.3,10.3,18.9c5.8,13.7,8.8,28.3,8.8,43.4c0,15.1-2.9,29.7-8.8,43.4c-2.8,6.6-6.3,13-10.3,18.9
			c-4,5.9-8.6,11.5-13.6,16.5c-5,5-10.6,9.6-16.5,13.6c-6,4-12.3,7.5-18.9,10.3c-13.7,5.8-28.3,8.8-43.4,8.8
			c-15.1,0-29.7-2.9-43.4-8.8c-6.6-2.8-13-6.3-18.9-10.3c-5.9-4-11.5-8.6-16.5-13.6c-5-5-9.6-10.6-13.6-16.5
			c-4-6-7.5-12.3-10.3-18.9c-5.8-13.7-8.8-28.3-8.8-43.4c0-15.1,2.9-29.7,8.8-43.4c2.8-6.6,6.3-13,10.3-18.9
			c4-5.9,8.6-11.5,13.6-16.5c5-5,10.6-9.6,16.5-13.6c6-4,12.3-7.5,18.9-10.3C124.6,45.7,139.2,42.8,154.3,42.8 M154.3,35.6
			c-65.5,0-118.6,53.1-118.6,118.6c0,65.5,53.1,118.6,118.6,118.6c65.5,0,118.6-53.1,118.6-118.6C272.9,88.8,219.8,35.6,154.3,35.6
			L154.3,35.6z"/>
		<path class="st0" d="M55.4,154.3c0,39.1,22.7,73,55.7,89L64,114C58.5,126.3,55.4,140,55.4,154.3z M221,149.3
			c0-12.2-4.4-20.7-8.2-27.3c-5-8.1-9.7-15-9.7-23.2c0-9.1,6.9-17.5,16.6-17.5c0.4,0,0.9,0.1,1.3,0.1c-17.6-16.1-41-26-66.8-26
			c-34.5,0-64.9,17.7-82.6,44.6c2.3,0.1,4.5,0.1,6.4,0.1c10.3,0,26.4-1.3,26.4-1.3c5.3-0.3,6,7.5,0.6,8.1c0,0-5.4,0.6-11.3,0.9
			l36,107.1l21.6-64.9L136,107.9c-5.3-0.3-10.4-0.9-10.4-0.9c-5.3-0.3-4.7-8.5,0.6-8.1c0,0,16.3,1.3,26,1.3
			c10.3,0,26.4-1.3,26.4-1.3c5.3-0.3,6,7.5,0.6,8.1c0,0-5.4,0.6-11.3,0.9l35.7,106.3l10.2-32.3C218.4,167.8,221,157.8,221,149.3z
			 M156,162.9l-29.7,86.2c8.9,2.6,18.2,4,27.9,4c11.5,0,22.6-2,32.8-5.6c-0.3-0.4-0.5-0.9-0.7-1.4L156,162.9z M241,106.9
			c0.4,3.1,0.7,6.5,0.7,10.2c0,10-1.9,21.3-7.5,35.4L204,239.7c29.4-17.1,49.2-49,49.2-85.5C253.2,137.1,248.8,120.9,241,106.9z"/>
	</g>
</g>
</svg>
